<svg width="56" height="36" viewBox="0 0 56 36" fill="none" xmlns="http://www.w3.org/2000/svg">
<path d="M14.75 29.375C12.875 28.4844 11.0391 27.625 9.24219 26.7969C8.47656 26.4531 7.67969 26.1016 6.85156 25.7422C6.02344 25.3672 5.20312 25.0156 4.39062 24.6875C3.59375 24.3438 2.82031 24.0312 2.07031 23.75C1.33594 23.4531 0.664062 23.2031 0.0546875 23C0.148438 21.625 0.195312 20.2969 0.195312 19.0156C0.195312 18.4219 0.1875 17.875 0.171875 17.375C0.15625 16.8594 0.140625 16.4141 0.125 16.0391C0.09375 15.6016 0.0703125 15.2031 0.0546875 14.8438C0.554688 14.5938 1.125 14.2734 1.76562 13.8828C2.42188 13.4922 3.10938 13.0625 3.82812 12.5938C4.5625 12.125 5.3125 11.6328 6.07812 11.1172C6.84375 10.5859 7.58594 10.0703 8.30469 9.57031C9.99219 8.38281 11.7422 7.11719 13.5547 5.77344L15.9922 12.875C15.1797 13.125 14.2891 13.4375 13.3203 13.8125C12.3516 14.1875 11.3516 14.6016 10.3203 15.0547C9.30469 15.5078 8.28125 16 7.25 16.5312C6.21875 17.0625 5.24219 17.6172 4.32031 18.1953C5.03906 18.6641 5.76562 19.1016 6.5 19.5078C7.25 19.8984 8.07031 20.2891 8.96094 20.6797C9.86719 21.0703 10.8828 21.4688 12.0078 21.875C13.1484 22.2656 14.4766 22.7031 15.9922 23.1875L14.75 29.375ZM37.6719 1.29688C37.1875 2.29688 36.6094 3.5625 35.9375 5.09375C35.2812 6.625 34.5625 8.33594 33.7812 10.2266C33.0156 12.1016 32.2188 14.1094 31.3906 16.25C30.5625 18.3906 29.75 20.5547 28.9531 22.7422C28.1719 24.9297 27.4141 27.1016 26.6797 29.2578C25.9609 31.3984 25.3203 33.4219 24.7578 35.3281C24.0859 35.2344 23.3984 35.1484 22.6953 35.0703C22.1016 35.0078 21.4453 34.9531 20.7266 34.9062C20.0078 34.8438 19.3203 34.8125 18.6641 34.8125H18.1016C18.9766 33.2031 19.8516 31.4375 20.7266 29.5156C21.6172 27.5938 22.4844 25.6094 23.3281 23.5625C24.1719 21.5156 24.9844 19.4453 25.7656 17.3516C26.5469 15.2578 27.2734 13.2188 27.9453 11.2344C28.6172 9.25 29.2188 7.375 29.75 5.60938C30.2969 3.82812 30.75 2.23438 31.1094 0.828125L37.6719 1.29688ZM39.7578 23.1875C41.2734 22.7031 42.5938 22.2656 43.7188 21.875C44.8594 21.4688 45.875 21.0703 46.7656 20.6797C47.6719 20.2891 48.4922 19.8984 49.2266 19.5078C49.9766 19.1016 50.7109 18.6641 51.4297 18.1953C50.5078 17.6172 49.5312 17.0625 48.5 16.5312C47.4844 16 46.4609 15.5078 45.4297 15.0547C44.4141 14.6016 43.4141 14.1875 42.4297 13.8125C41.4609 13.4375 40.5703 13.125 39.7578 12.875L42.2188 5.77344C44.0312 7.11719 45.7812 8.38281 47.4688 9.57031C48.1875 10.0703 48.9219 10.5859 49.6719 11.1172C50.4375 11.6328 51.1797 12.125 51.8984 12.5938C52.6328 13.0625 53.3203 13.4922 53.9609 13.8828C54.6172 14.2734 55.1953 14.5938 55.6953 14.8438C55.6641 15.2031 55.6406 15.6016 55.625 16.0391C55.5781 16.7891 55.5547 17.7812 55.5547 19.0156C55.5547 20.2969 55.6016 21.625 55.6953 23C55.0859 23.2031 54.4062 23.4531 53.6562 23.75C52.9062 24.0312 52.1328 24.3438 51.3359 24.6875C50.5391 25.0156 49.7266 25.3672 48.8984 25.7422C48.0859 26.1016 47.2969 26.4531 46.5312 26.7969C44.75 27.625 42.9141 28.4844 41.0234 29.375L39.7578 23.1875Z" fill="#1F6FEB"/>
</svg>
